<svg width="1400" height="360" viewBox="0 0 1400 360" fill="none" xmlns="http://www.w3.org/2000/svg">
<defs><linearGradient id="trail" x1="0" y1="0" x2="1" y2="0"><stop stop-color="#F7C62F" stop-opacity="0"/><stop offset=".55" stop-color="#F7C62F" stop-opacity=".65"/><stop offset="1" stop-color="#FFF4C2"/></linearGradient><linearGradient id="fire" x1="0" y1="1" x2="1" y2="0"><stop stop-color="#A96213"/><stop offset=".55" stop-color="#F7C62F"/><stop offset="1" stop-color="#FFF8D8"/></linearGradient></defs>
<path d="M140 290C390 210 530 170 830 130C1030 103 1135 83 1290 31" stroke="url(#trail)" stroke-width="9" stroke-linecap="round" opacity=".75"/><path d="M170 325C430 230 610 195 870 155C1050 127 1170 95 1350 55" stroke="url(#trail)" stroke-width="3" stroke-linecap="round" opacity=".7"/><path d="M215 250C430 174 600 146 870 109C1080 80 1190 51 1320 16" stroke="url(#trail)" stroke-width="4" stroke-linecap="round" opacity=".5"/>
<path d="M430 280C510 228 545 192 635 169C590 207 574 245 507 300C474 327 437 319 430 280Z" fill="url(#fire)" opacity=".85"/><path d="M465 288C530 253 560 226 620 207C581 242 560 270 513 304" stroke="#FFF1A4" stroke-width="5" stroke-linecap="round" opacity=".8"/>
<g transform="translate(800 42) rotate(-18)"><path d="M0 102C72 26 181 4 276 48C212 66 148 105 79 162C43 191 4 163 0 102Z" fill="#F7F1D8"/><path d="M18 101C92 52 168 34 251 51C177 70 116 106 65 148" stroke="#C8B98C" stroke-width="5"/><path d="M71 74L63 20M111 60L111 6M151 52L160 0M192 50L215 7M228 57L260 22" stroke="#FFFDF2" stroke-width="15" stroke-linecap="round"/><path d="M27 115L75 152" stroke="#1D3147" stroke-width="28" stroke-linecap="round"/><ellipse cx="12" cy="112" rx="39" ry="34" fill="#D3D5D1"/><path d="M-22 93C-5 77 18 77 32 91" stroke="#FFFDF2" stroke-width="9" stroke-linecap="round" opacity=".8"/></g>
<circle cx="1220" cy="46" r="4" fill="#FFF8D8"/><circle cx="1300" cy="86" r="3" fill="#F7C62F"/><circle cx="1110" cy="36" r="2" fill="#FFF8D8"/>
</svg>
