<svg width="96" height="96" viewBox="0 0 96 96" fill="none" xmlns="http://www.w3.org/2000/svg">
  <rect width="96" height="96" rx="18" fill="#071A2D"/>
  <path d="M48 7C37 19 26 34 26 50C26 62 35 71 48 76C61 71 70 62 70 50C70 34 59 19 48 7Z" fill="#FFF8DF"/>
  <path d="M48 10V77" stroke="#D59E1B" stroke-width="2.5"/>
  <path d="M43 19L31 11M41 29L24 22M39 40L20 36M39 51L20 51M41 61L25 66M53 19L65 11M55 29L72 22M57 40L76 36M57 51L76 51M55 61L71 66" stroke="#D59E1B" stroke-width="3" stroke-linecap="round"/>
  <path d="M48 45C43 37 39 29 38 20C44 26 48 32 48 45Z" fill="#0D2B4A"/>
  <path d="M48 45C53 37 57 29 58 20C52 26 48 32 48 45Z" fill="#0D2B4A"/>
  <path d="M35 69C39 74 44 78 48 80C52 78 57 74 61 69L57 83C53 87 43 87 39 83L35 69Z" fill="#D9D9D2" stroke="#F7C62F" stroke-width="2"/>
  <text x="48" y="94" text-anchor="middle" fill="#F7C62F" font-family="Arial, sans-serif" font-size="7" font-weight="700" letter-spacing="1.2">WSS</text>
</svg>
